# This file uses centimeters as units for non-parametric coordinates.

mtllib Screen.mtl
g default
v -2.470551 0.443231 0.373683
v 2.470551 0.443231 0.373683
v 2.470551 3.084080 0.433015
v -2.470551 3.084080 0.433015
v 2.470551 6.993655 0.402201
v -2.470551 6.993655 0.402201
v -2.310146 0.623026 0.197158
v 2.310146 0.623026 0.197158
v 2.310146 3.119451 0.256472
v -2.310146 3.119451 0.256472
v 2.310146 6.816435 0.225638
v -2.310146 6.816435 0.225638
v -2.681841 0.328937 0.276319
v -2.567870 0.440908 0.373629
v 2.681841 0.328937 0.276319
v 2.567991 0.440787 0.373626
v -2.681834 7.159896 0.306446
v -2.568327 7.046151 0.401766
v 2.681834 7.159896 0.306446
v 2.567815 7.045640 0.401771
v -2.792091 7.271659 -0.286633
v -2.697291 7.177154 -0.400066
v 2.697291 7.177154 -0.400066
v 2.792091 7.271659 -0.286633
v -2.697406 0.328105 -0.432046
v -2.792174 0.230991 -0.320293
v 2.792174 0.230991 -0.320293
v 2.697406 0.328105 -0.432046
v -2.681948 3.059928 0.339549
v -2.567416 3.059222 0.433620
v 2.681948 3.059928 0.339549
v 2.567416 3.059222 0.433620
v -2.792164 3.046787 -0.253848
v -2.697424 3.047687 -0.367830
v 2.697424 3.047687 -0.367830
v 2.792164 3.046787 -0.253848
vt 0.546856 0.213161
vt 0.900916 0.213730
vt 0.902979 0.404223
vt 0.544472 0.404969
vt 0.901785 0.688560
vt 0.546887 0.688231
vt 0.512635 0.185888
vt 0.426746 0.183072
vt 0.023781 0.196131
vt 0.032490 0.184689
vt 0.440673 0.836979
vt 0.431904 0.848385
vt 0.936627 0.719022
vt 0.465807 0.728694
vt 0.439604 0.780142
vt 0.442909 0.458547
vt 0.019757 0.789981
vt 0.009665 0.465331
vt 0.444044 0.240922
vt 0.454428 0.458419
vt 0.434912 0.251675
vt 0.024769 0.253391
vt 0.028040 0.836414
vt 0.449277 0.790547
vt 0.015483 0.242689
vt 0.435520 0.194449
vt 0.935229 0.186383
vt 0.981508 0.176696
vt 0.986689 0.397934
vt 0.466379 0.176105
vt 0.507139 0.400173
vt 0.460723 0.398691
vt 0.512007 0.718956
vt 0.029369 0.779611
vt 0.021183 0.465275
vt 0.940291 0.399415
vt 0.982896 0.728376
vt 0.923994 0.195306
vt 0.531455 0.195037
vt 0.928935 0.399476
vt 0.916386 0.195485
vt 0.523860 0.194851
vt 0.525915 0.402213
vt 0.925315 0.710138
vt 0.921525 0.401458
vt 0.523262 0.710041
vt 0.917831 0.706137
vt 0.518499 0.400241
vt 0.530895 0.705982
vt 0.036772 0.847874
vt 0.925300 0.710141
vn 0.000000 -0.023753 0.999718
vn 0.000000 -0.023753 0.999718
vn 0.000000 -0.004598 0.999989
vn 0.000000 -0.004598 0.999989
vn 0.000000 0.008340 0.999965
vn 0.000000 0.008340 0.999965
vn 0.000000 0.700586 0.713568
vn 0.000000 0.700586 0.713568
vn 0.000000 0.700586 0.713568
vn 0.000000 0.700586 0.713568
vn -0.744676 -0.015410 0.667248
vn -0.742815 -0.003925 0.669485
vn -0.742512 -0.002112 0.669830
vn -0.744676 -0.015410 0.667248
vn 0.742815 -0.003925 0.669485
vn 0.744676 -0.015410 0.667248
vn 0.744676 -0.015410 0.667248
vn 0.742512 -0.002112 0.669830
vn -0.741220 0.005440 0.671240
vn -0.741220 0.005440 0.671240
vn 0.000000 -0.705793 0.708418
vn 0.000000 -0.705793 0.708418
vn 0.000000 -0.705793 0.708418
vn 0.000000 -0.705793 0.708418
vn 0.741220 0.005440 0.671240
vn 0.741220 0.005440 0.671240
vn -0.636900 -0.017713 0.770743
vn -0.636900 -0.017713 0.770743
vn -0.637046 -0.003376 0.770818
vn -0.637046 -0.003376 0.770818
vn -0.000007 -0.656155 0.754626
vn -0.000007 -0.656155 0.754626
vn -0.000007 -0.656155 0.754626
vn -0.000007 -0.656155 0.754626
vn 0.637104 -0.017694 0.770575
vn 0.637104 -0.017694 0.770575
vn 0.636610 -0.003332 0.771178
vn 0.636611 -0.003331 0.771178
vn 0.000031 0.641464 0.767153
vn 0.000031 0.641464 0.767153
vn 0.000031 0.641464 0.767153
vn 0.000031 0.641464 0.767153
vn -0.637072 0.006128 0.770780
vn -0.637072 0.006128 0.770780
vn 0.636211 0.006174 0.771490
vn 0.636211 0.006174 0.771490
vn -0.769168 -0.004955 -0.639028
vn -0.769168 -0.004955 -0.639028
vn -0.769143 0.003030 -0.639069
vn -0.769143 0.003030 -0.639069
vn 0.000000 0.768296 -0.640095
vn 0.000000 0.768296 -0.640095
vn 0.000000 0.768296 -0.640095
vn 0.000000 0.768296 -0.640095
vn 0.769168 -0.004955 -0.639028
vn 0.769168 -0.004955 -0.639028
vn 0.769143 0.003030 -0.639069
vn 0.769143 0.003030 -0.639069
vn -0.769013 0.015084 -0.639055
vn -0.769013 0.015084 -0.639055
vn 0.000000 -0.754812 -0.655941
vn 0.000000 -0.754812 -0.655941
vn 0.000000 -0.754812 -0.655941
vn 0.000000 -0.754812 -0.655941
vn 0.769013 0.015084 -0.639055
vn 0.769013 0.015084 -0.639055
vn 0.000000 0.982703 0.185187
vn 0.000000 0.982703 0.185187
vn 0.000000 0.982703 0.185187
vn 0.000000 0.982703 0.185187
vn 0.000000 0.004669 -0.999989
vn 0.000000 0.004669 -0.999989
vn 0.000000 0.023606 -0.999721
vn 0.000000 0.023606 -0.999721
vn 0.000000 -0.986791 0.162001
vn 0.000000 -0.986791 0.162001
vn 0.000000 -0.986791 0.162001
vn 0.000000 -0.986791 0.162001
vn 0.983175 -0.004287 0.182616
vn 0.983175 -0.004287 0.182616
vn 0.983162 -0.000886 0.182732
vn 0.983162 -0.000783 0.182736
vn -0.983175 -0.004287 0.182616
vn -0.983175 -0.004287 0.182616
vn -0.983162 -0.000783 0.182736
vn -0.983162 -0.000886 0.182732
vn -0.983147 0.001469 0.182812
vn -0.983147 0.001469 0.182812
vn 0.000000 -0.007806 -0.999970
vn 0.000000 -0.007806 -0.999970
vn 0.983147 0.001469 0.182812
vn 0.983147 0.001469 0.182812
vn 0.006004 -0.022684 0.999725
vn -0.006000 -0.022684 0.999725
vn -0.005499 -0.022740 0.999726
vn 0.005502 -0.022740 0.999726
vn -0.003923 -0.006742 0.999970
vn -0.003308 -0.002037 0.999992
vn 0.003918 -0.006716 0.999970
vn 0.003302 -0.002014 0.999993
vn -0.001528 0.008018 0.999967
vn -0.001065 0.008098 0.999967
vn 0.001522 0.008018 0.999967
vn 0.001064 0.008098 0.999967
s 1
g pCube1
usemtl initialShadingGroup
f 7/1/1 8/2/2 9/3/3 10/4/4
f 10/4/4 9/3/3 11/5/5 12/6/6
s off
f 1/39/7 2/41/8 8/2/9 7/1/10
s 2
f 2/41/11 3/45/12 9/3/13 8/2/14
s 3
f 4/43/15 1/39/16 7/1/17 10/4/18
s 2
f 3/45/12 5/47/19 11/5/20 9/3/13
s off
f 5/47/21 6/49/22 12/6/23 11/5/24
s 3
f 6/49/25 4/43/15 10/4/18 12/6/26
s 4
f 13/7/27 14/42/28 30/48/29 29/31/30
s off
f 14/8/31 13/26/32 15/9/33 16/10/34
s 5
f 16/38/35 15/27/36 31/36/37 32/40/38
s off
f 17/11/39 18/12/40 20/50/41 19/23/42
s 4
f 18/46/43 17/33/44 29/31/30 30/48/29
s 5
f 19/13/45 20/51/46 32/40/38 31/36/37
s 6
f 21/24/47 22/15/48 34/16/49 33/20/50
s off
f 22/15/51 21/24/52 24/17/53 23/34/54
s 7
f 23/34/55 24/17/56 36/18/57 35/35/58
s 6
f 25/21/59 26/19/60 33/20/50 34/16/49
s off
f 26/19/61 25/21/62 28/22/63 27/25/64
s 7
f 27/25/65 28/22/66 35/35/58 36/18/57
s off
f 17/11/67 19/23/68 24/17/69 21/24/70
s 8
f 34/16/71 35/35/72 28/22/73 25/21/74
s off
f 26/19/75 27/25/76 15/9/77 13/26/78
s 9
f 15/27/79 27/28/80 36/29/81 31/36/82
s 10
f 26/30/83 13/7/84 29/31/85 33/32/86
f 33/32/86 29/31/85 17/33/87 21/14/88
s 8
f 22/15/89 23/34/90 35/35/72 34/16/71
s 9
f 31/36/82 36/29/81 24/37/91 19/13/92
s 11
f 14/42/93 16/38/94 2/41/95 1/39/96
f 16/38/94 32/40/97 3/45/98 2/41/95
f 30/48/99 14/42/93 1/39/96 4/43/100
f 32/40/97 20/51/101 5/47/102 3/45/98
f 20/44/101 18/46/103 6/49/104 5/47/102
f 18/46/103 30/48/99 4/43/100 6/49/104
